<svg xmlns="http://www.w3.org/2000/svg" xmlns:xlink="http://www.w3.org/1999/xlink" aria-hidden="true" role="img" class="iconify iconify--logos" width="32" height="32" preserveAspectRatio="xMidYMid meet" viewBox="0 0 140 140">
  <g id="someone-icon">
    <circle cx="70" cy="79.56496" r="44" fill="#3241e0" />
    <path
      d="m100,78.06496a1.488,1.488 0 0 1 -1,1.4l0,0.18a43.963,43.963 0 0 1 -58,0l0,-0.18a1.479,1.479 0 0 1 0,-2.8l0,-0.1l1.066,0c0.161,0.15 0.329,0.291 0.492,0.438l0,0a40.929,40.929 0 0 0 54.877,0l0,0c0.163,-0.147 0.331,-0.288 0.492,-0.438l1.073,0l0,0.1a1.488,1.488 0 0 1 1,1.4z"
      fill="#a4ef00"
      fill-rule="evenodd"
    />
    <circle cx="80.21544" cy="26.43504" r="10" fill="#a4ef00" />
    <circle
      stroke="null"
      cx="60.16192"
      cy="26.43504"
      r="10"
      fill="#a4ef00"
    />
  </g>
</svg>